<svg xmlns="http://www.w3.org/2000/svg" xmlns:xlink="http://www.w3.org/1999/xlink" width="200" height="105.13" viewBox="0 0 200 105.13">
  <defs>
    <linearGradient id="linear-gradient" x1="-0.088" y1="-0.68" x2="1.277" y2="-0.7" gradientUnits="objectBoundingBox">
      <stop offset="0" stop-color="#e6c13c" stop-opacity="0"/>
      <stop offset="0.221" stop-color="#e6c13c" stop-opacity="0.114"/>
      <stop offset="0.472" stop-color="#e6c13c" stop-opacity="0.486"/>
      <stop offset="0.7" stop-color="#e6c13c" stop-opacity="0.765"/>
      <stop offset="0.859" stop-color="#e6c13c" stop-opacity="0.933"/>
      <stop offset="1" stop-color="#e6c13c"/>
    </linearGradient>
  </defs>
  <g id="Group_39315" data-name="Group 39315" transform="translate(-1005.605 -562.316)">
    <path id="Path_64494" data-name="Path 64494" d="M1013.76,632.245a6.394,6.394,0,0,0,2.269,3.293,5.786,5.786,0,0,0,3.567,1.194,9.49,9.49,0,0,0,4.286-1.031l2.168-1.081a4.1,4.1,0,0,1,1.45-.364,3.2,3.2,0,0,1,1.576.429,3.31,3.31,0,0,1,1.223,1.158,2.827,2.827,0,0,1,.454,1.511q0,2.129-3.05,3.867a16.926,16.926,0,0,1-8.521,2.116,14.614,14.614,0,0,1-5.956-1.236,12.907,12.907,0,0,1-4.784-3.617,14.757,14.757,0,0,1-1.115-15.618,13.065,13.065,0,0,1,4.727-4.922,12.515,12.515,0,0,1,6.611-1.822,12.182,12.182,0,0,1,6.34,1.716,12.306,12.306,0,0,1,4.525,4.643,12.7,12.7,0,0,1,1.639,6.307,3.84,3.84,0,0,1-.75,2.63,3.246,3.246,0,0,1-2.5.827Zm9.97-5.169q-1.21-4.752-5.168-4.752-3.492,0-5.055,4.752Z" transform="translate(0 -26.128)" fill="#fff"/>
    <path id="Path_64495" data-name="Path 64495" d="M1081.378,608.033v-9.4a4.441,4.441,0,0,1,1.015-2.974,3.478,3.478,0,0,1,2.8-1.2,3.424,3.424,0,0,1,2.76,1.191,4.453,4.453,0,0,1,1.009,2.981v29.7a4.9,4.9,0,0,1-.964,3.081,3.254,3.254,0,0,1-2.741,1.255,3.481,3.481,0,0,1-2.351-.744,5.336,5.336,0,0,1-1.418-2.257,7.333,7.333,0,0,1-2.861,2.414,9.14,9.14,0,0,1-3.807.738,9.332,9.332,0,0,1-4.752-1.292,11.891,11.891,0,0,1-3.769-3.46,16.445,16.445,0,0,1-2.836-9.555,13.074,13.074,0,0,1,1.292-5.508,13.508,13.508,0,0,1,3.36-4.6,10.778,10.778,0,0,1,7.323-2.8A9.369,9.369,0,0,1,1081.378,608.033Zm-10.323,10.839a7.563,7.563,0,0,0,1.424,4.53,4.5,4.5,0,0,0,3.845,1.98,4.177,4.177,0,0,0,2.76-.965,5.992,5.992,0,0,0,1.752-2.492,8.514,8.514,0,0,0,.593-3.1,8.351,8.351,0,0,0-.593-3.066,6,6,0,0,0-1.752-2.479,4.175,4.175,0,0,0-2.76-.966,4.479,4.479,0,0,0-2.862.946,5.826,5.826,0,0,0-1.8,2.454A8.411,8.411,0,0,0,1071.055,618.872Z" transform="translate(-28.097 -15.609)" fill="#fff"/>
    <g id="Group_39316" data-name="Group 39316" transform="translate(1008.134 625.641)">
      <g id="Group_39315-2" data-name="Group 39315">
        <path id="Path_64496" data-name="Path 64496" d="M1034.112,686.684a2.075,2.075,0,0,1,.365,1.172,2.355,2.355,0,0,1-.156.833l-9.686,21.507a2.443,2.443,0,0,1-.885.989,2.654,2.654,0,0,1-2.5,0,2.435,2.435,0,0,1-.885-.989l-9.686-21.507a2.363,2.363,0,0,1-.156-.833,2.071,2.071,0,0,1,.364-1.172,2.212,2.212,0,0,1,.938-.808,2.677,2.677,0,0,1,.833-.156,2.281,2.281,0,0,1,1.224.338,2.011,2.011,0,0,1,.807.964l7.811,17.914,7.811-17.914a2.011,2.011,0,0,1,.807-.964,2.192,2.192,0,0,1,1.172-.338,2.367,2.367,0,0,1,.833.156A2.163,2.163,0,0,1,1034.112,686.684Z" transform="translate(-1010.522 -685.565)" fill="#fff"/>
        <path id="Path_64497" data-name="Path 64497" d="M1087.489,686.354a2.058,2.058,0,0,1,.625,1.51v21.091a2.144,2.144,0,0,1-.625,1.537,2.015,2.015,0,0,1-1.51.651,2.224,2.224,0,0,1-2.187-2.188v-1.823a11.957,11.957,0,0,1-3.984,3.177,11.066,11.066,0,0,1-4.973,1.146,11.2,11.2,0,0,1-5.989-1.667,11.859,11.859,0,0,1-4.3-4.661,14.894,14.894,0,0,1,0-13.384,11.869,11.869,0,0,1,4.3-4.661,11.6,11.6,0,0,1,10.962-.547,11.685,11.685,0,0,1,3.984,3.15v-1.823a2.017,2.017,0,0,1,.651-1.51,2.145,2.145,0,0,1,1.536-.625A2.058,2.058,0,0,1,1087.489,686.354Zm-7.656,19.972a8.485,8.485,0,0,0,2.995-3.255,9.629,9.629,0,0,0,1.12-4.635,9.779,9.779,0,0,0-1.094-4.661,8.279,8.279,0,0,0-2.994-3.229,8.088,8.088,0,0,0-8.385,0,8.27,8.27,0,0,0-2.994,3.229,9.772,9.772,0,0,0-1.094,4.661,9.624,9.624,0,0,0,1.12,4.635,8.481,8.481,0,0,0,2.995,3.255,7.994,7.994,0,0,0,8.332,0Z" transform="translate(-1035.985 -685.417)" fill="#fff"/>
        <path id="Path_64498" data-name="Path 64498" d="M1130,709.789a12.116,12.116,0,0,1-4.609-4.661,14.076,14.076,0,0,1,0-13.384,12.127,12.127,0,0,1,4.609-4.661,13.133,13.133,0,0,1,10.936-.86,12,12,0,0,1,3.854,2.369,1.924,1.924,0,0,1,.781,1.563,2.046,2.046,0,0,1-2.031,2.031,2.072,2.072,0,0,1-1.354-.521,8.18,8.18,0,0,0-5.781-2.291,7.834,7.834,0,0,0-4.192,1.171,8.273,8.273,0,0,0-2.994,3.229,9.772,9.772,0,0,0-1.094,4.661,9.624,9.624,0,0,0,1.12,4.635,8.48,8.48,0,0,0,2.994,3.255,7.7,7.7,0,0,0,4.166,1.171,8.084,8.084,0,0,0,5.781-2.343,2.07,2.07,0,0,1,1.354-.469,2.047,2.047,0,0,1,2.031,2.031,1.924,1.924,0,0,1-.781,1.563,11.98,11.98,0,0,1-3.854,2.369,13.133,13.133,0,0,1-10.936-.86Z" transform="translate(-1065.479 -685.417)" fill="#fff"/>
        <path id="Path_64499" data-name="Path 64499" d="M1201.07,686.354a2.058,2.058,0,0,1,.625,1.51v21.091a2.143,2.143,0,0,1-.625,1.537,2.014,2.014,0,0,1-1.51.651,2.223,2.223,0,0,1-2.187-2.188v-1.823a11.96,11.96,0,0,1-3.984,3.177,11.068,11.068,0,0,1-4.973,1.146,11.2,11.2,0,0,1-5.989-1.667,11.86,11.86,0,0,1-4.3-4.661,14.89,14.89,0,0,1,0-13.384,11.871,11.871,0,0,1,4.3-4.661,11.6,11.6,0,0,1,10.962-.547,11.687,11.687,0,0,1,3.984,3.15v-1.823a2.015,2.015,0,0,1,.651-1.51,2.143,2.143,0,0,1,1.536-.625A2.057,2.057,0,0,1,1201.07,686.354Zm-7.655,19.972a8.483,8.483,0,0,0,2.994-3.255,9.628,9.628,0,0,0,1.119-4.635,9.78,9.78,0,0,0-1.093-4.661,8.287,8.287,0,0,0-2.995-3.229,8.088,8.088,0,0,0-8.384,0,8.27,8.27,0,0,0-2.995,3.229,9.779,9.779,0,0,0-1.094,4.661,9.622,9.622,0,0,0,1.12,4.635,8.476,8.476,0,0,0,2.994,3.255,7.994,7.994,0,0,0,8.332,0Z" transform="translate(-1091.139 -685.417)" fill="#fff"/>
        <path id="Path_64500" data-name="Path 64500" d="M1256.326,686.667a8.923,8.923,0,0,1,3.568,3.645,11.727,11.727,0,0,1,1.3,5.676v13.019a2.135,2.135,0,1,1-4.27,0V696.4a6.649,6.649,0,0,0-6.874-7.03,6.711,6.711,0,0,0-5,2.083,7.162,7.162,0,0,0-2.031,5.208v12.342a2.018,2.018,0,0,1-.651,1.51,2.147,2.147,0,0,1-1.536.625,2.133,2.133,0,0,1-2.135-2.135V687.865a2.133,2.133,0,0,1,2.135-2.135,2.147,2.147,0,0,1,1.536.625,2.019,2.019,0,0,1,.651,1.51v1.614a9.253,9.253,0,0,1,3.489-2.994,10.455,10.455,0,0,1,4.739-1.067A10.332,10.332,0,0,1,1256.326,686.667Z" transform="translate(-1121.321 -685.417)" fill="#fff"/>
        <path id="Path_64501" data-name="Path 64501" d="M1300.071,709.789a12.115,12.115,0,0,1-4.609-4.661,14.076,14.076,0,0,1,0-13.384,12.126,12.126,0,0,1,4.609-4.661,13.133,13.133,0,0,1,10.936-.86,11.994,11.994,0,0,1,3.854,2.369,1.924,1.924,0,0,1,.781,1.563,2.045,2.045,0,0,1-2.031,2.031,2.073,2.073,0,0,1-1.354-.521,8.18,8.18,0,0,0-5.781-2.291,7.831,7.831,0,0,0-4.192,1.171,8.27,8.27,0,0,0-2.995,3.229,9.779,9.779,0,0,0-1.094,4.661,9.628,9.628,0,0,0,1.119,4.635,8.479,8.479,0,0,0,2.994,3.255,7.7,7.7,0,0,0,4.166,1.171,8.084,8.084,0,0,0,5.781-2.343,2.071,2.071,0,0,1,1.354-.469,2.045,2.045,0,0,1,2.031,2.031,1.924,1.924,0,0,1-.781,1.563,11.976,11.976,0,0,1-3.854,2.369,13.133,13.133,0,0,1-10.936-.86Z" transform="translate(-1148.063 -685.417)" fill="#fff"/>
        <path id="Path_64502" data-name="Path 64502" d="M1369.97,686.736a2.19,2.19,0,0,1,.338,1.171,1.763,1.763,0,0,1-.208.886l-15.154,31.61a1.908,1.908,0,0,1-.807.885,2.325,2.325,0,0,1-1.172.313,1.992,1.992,0,0,1-1.536-.651,2.131,2.131,0,0,1-.6-1.484,2.06,2.06,0,0,1,.208-.937l4.062-8.488L1345,688.846a2.059,2.059,0,0,1-.208-.938,2.322,2.322,0,0,1,.312-1.171,1.9,1.9,0,0,1,.885-.807,2.072,2.072,0,0,1,.937-.208,2.192,2.192,0,0,1,1.172.338,2.053,2.053,0,0,1,.807.912l8.645,18.383,8.645-18.383a2.049,2.049,0,0,1,.807-.912,2.192,2.192,0,0,1,1.172-.338,1.764,1.764,0,0,1,.885.208A2.054,2.054,0,0,1,1369.97,686.736Z" transform="translate(-1172.838 -685.565)" fill="#fff"/>
      </g>
    </g>
    <g id="Group_39317" data-name="Group 39317" transform="translate(1016.2 656.35)">
      <path id="Path_64503" data-name="Path 64503" d="M1030.754,750.577a2.811,2.811,0,0,1,1.015,1.1,3.515,3.515,0,0,1,0,3.162,2.808,2.808,0,0,1-1.015,1.1,2.646,2.646,0,0,1-1.415.394,2.614,2.614,0,0,1-1.175-.271,2.825,2.825,0,0,1-.941-.75v2.841a.508.508,0,0,1-.148.363.478.478,0,0,1-.357.154.525.525,0,0,1-.516-.517v-7.393a.474.474,0,0,1,.154-.357.5.5,0,0,1,.363-.148.5.5,0,0,1,.5.5v.431a2.739,2.739,0,0,1,.947-.744,2.674,2.674,0,0,1,1.169-.264A2.646,2.646,0,0,1,1030.754,750.577Zm-.627,4.546a2,2,0,0,0,.707-.769,2.274,2.274,0,0,0,.265-1.1,2.309,2.309,0,0,0-.258-1.1,1.962,1.962,0,0,0-.707-.763,1.856,1.856,0,0,0-.991-.277,1.833,1.833,0,0,0-.978.277,2,2,0,0,0-.714.763,2.412,2.412,0,0,0,0,2.2,1.989,1.989,0,0,0,.714.769,1.878,1.878,0,0,0,1.963,0Z" transform="translate(-1026.202 -747.575)" fill="#e6c13c"/>
      <path id="Path_64504" data-name="Path 64504" d="M1041.6,755.922a2.8,2.8,0,0,1-1.015-1.1,3.265,3.265,0,0,1-.369-1.556,3.314,3.314,0,0,1,.375-1.581,2.853,2.853,0,0,1,1.015-1.108,2.688,2.688,0,0,1,2.86.025,2.815,2.815,0,0,1,1,1.144,3.482,3.482,0,0,1,.339,1.593.443.443,0,0,1-.443.443h-4.06a2.022,2.022,0,0,0,.621,1.156,1.683,1.683,0,0,0,1.175.443,2.828,2.828,0,0,0,.861-.129,4.253,4.253,0,0,0,.849-.388.579.579,0,0,1,.2-.049.445.445,0,0,1,.332.141.474.474,0,0,1,.135.339.462.462,0,0,1-.074.253.493.493,0,0,1-.2.178,6.456,6.456,0,0,1-1.064.436,3.721,3.721,0,0,1-1.077.154A2.707,2.707,0,0,1,1041.6,755.922Zm3.131-3.02a1.954,1.954,0,0,0-.56-1.273,1.605,1.605,0,0,0-2.325,0,1.952,1.952,0,0,0-.56,1.273Z" transform="translate(-1033.006 -747.575)" fill="#e6c13c"/>
      <path id="Path_64505" data-name="Path 64505" d="M1054.929,755.94a2.864,2.864,0,0,1-1.089-1.1,3.327,3.327,0,0,1,0-3.162,2.868,2.868,0,0,1,1.089-1.1,3.106,3.106,0,0,1,3.026,0,2.873,2.873,0,0,1,1.088,1.1,3.327,3.327,0,0,1,0,3.162,2.87,2.87,0,0,1-1.088,1.1,3.106,3.106,0,0,1-3.026,0Zm2.5-.818a2.006,2.006,0,0,0,.707-.769,2.275,2.275,0,0,0,.264-1.1,2.309,2.309,0,0,0-.258-1.1,1.959,1.959,0,0,0-.707-.763,1.91,1.91,0,0,0-1.981,0,1.959,1.959,0,0,0-.707.763,2.31,2.31,0,0,0-.258,1.1,2.274,2.274,0,0,0,.264,1.1,2,2,0,0,0,.707.769,1.888,1.888,0,0,0,1.968,0Z" transform="translate(-1039.428 -747.575)" fill="#e6c13c"/>
      <path id="Path_64506" data-name="Path 64506" d="M1072.532,750.577a2.811,2.811,0,0,1,1.015,1.1,3.516,3.516,0,0,1,0,3.162,2.808,2.808,0,0,1-1.015,1.1,2.649,2.649,0,0,1-1.415.394,2.611,2.611,0,0,1-1.174-.271,2.82,2.82,0,0,1-.941-.75v2.841a.508.508,0,0,1-.148.363.478.478,0,0,1-.357.154.525.525,0,0,1-.516-.517v-7.393a.477.477,0,0,1,.154-.357.5.5,0,0,1,.363-.148.5.5,0,0,1,.5.5v.431a2.739,2.739,0,0,1,.947-.744,2.677,2.677,0,0,1,1.169-.264A2.648,2.648,0,0,1,1072.532,750.577Zm-.627,4.546a2.006,2.006,0,0,0,.707-.769,2.279,2.279,0,0,0,.264-1.1,2.309,2.309,0,0,0-.258-1.1,1.959,1.959,0,0,0-.707-.763,1.856,1.856,0,0,0-.991-.277,1.83,1.83,0,0,0-.977.277,2,2,0,0,0-.714.763,2.412,2.412,0,0,0,0,2.2,1.985,1.985,0,0,0,.714.769,1.877,1.877,0,0,0,1.962,0Z" transform="translate(-1046.489 -747.575)" fill="#e6c13c"/>
      <path id="Path_64507" data-name="Path 64507" d="M1082.578,753.645a.494.494,0,0,1-.154-.363V745.63a.525.525,0,0,1,.516-.517.477.477,0,0,1,.357.154.507.507,0,0,1,.148.363v7.651a.506.506,0,0,1-.148.363.476.476,0,0,1-.357.153A.5.5,0,0,1,1082.578,753.645Z" transform="translate(-1053.502 -745.113)" fill="#e6c13c"/>
      <path id="Path_64508" data-name="Path 64508" d="M1088.543,755.922a2.806,2.806,0,0,1-1.015-1.1,3.266,3.266,0,0,1-.369-1.556,3.319,3.319,0,0,1,.375-1.581,2.854,2.854,0,0,1,1.015-1.108,2.689,2.689,0,0,1,2.86.025,2.811,2.811,0,0,1,1,1.144,3.47,3.47,0,0,1,.339,1.593.442.442,0,0,1-.443.443h-4.06a2.026,2.026,0,0,0,.621,1.156,1.682,1.682,0,0,0,1.175.443,2.831,2.831,0,0,0,.861-.129,4.247,4.247,0,0,0,.849-.388.577.577,0,0,1,.2-.049.444.444,0,0,1,.332.141.474.474,0,0,1,.135.339.467.467,0,0,1-.074.253.5.5,0,0,1-.2.178,6.438,6.438,0,0,1-1.064.436,3.724,3.724,0,0,1-1.077.154A2.71,2.71,0,0,1,1088.543,755.922Zm3.131-3.02a1.957,1.957,0,0,0-.56-1.273,1.605,1.605,0,0,0-2.325,0,1.954,1.954,0,0,0-.559,1.273Z" transform="translate(-1055.802 -747.575)" fill="#e6c13c"/>
      <path id="Path_64509" data-name="Path 64509" d="M1108.854,760.909a.606.606,0,0,1-.442-.184.654.654,0,0,1,0-.911.624.624,0,0,1,.885,0,.653.653,0,0,1,0,.911A.605.605,0,0,1,1108.854,760.909Z" transform="translate(-1066.032 -752.162)" fill="#e6c13c"/>
      <path id="Path_64510" data-name="Path 64510" d="M1125.931,750.577a2.812,2.812,0,0,1,1.015,1.1,3.52,3.52,0,0,1,0,3.162,2.809,2.809,0,0,1-1.015,1.1,2.648,2.648,0,0,1-1.415.394,2.612,2.612,0,0,1-1.175-.271,2.821,2.821,0,0,1-.941-.75v2.841a.507.507,0,0,1-.147.363.478.478,0,0,1-.357.154.526.526,0,0,1-.517-.517v-7.393a.475.475,0,0,1,.154-.357.5.5,0,0,1,.363-.148.5.5,0,0,1,.5.5v.431a2.736,2.736,0,0,1,.948-.744,2.674,2.674,0,0,1,1.169-.264A2.647,2.647,0,0,1,1125.931,750.577Zm-.628,4.546a2,2,0,0,0,.707-.769,2.275,2.275,0,0,0,.265-1.1,2.309,2.309,0,0,0-.259-1.1,1.957,1.957,0,0,0-.707-.763,1.855,1.855,0,0,0-.99-.277,1.831,1.831,0,0,0-.978.277,2,2,0,0,0-.714.763,2.412,2.412,0,0,0,0,2.2,1.985,1.985,0,0,0,.714.769,1.877,1.877,0,0,0,1.962,0Z" transform="translate(-1072.418 -747.575)" fill="#e6c13c"/>
      <path id="Path_64511" data-name="Path 64511" d="M1138.982,750.331a.491.491,0,0,1,0,.714.506.506,0,0,1-.363.148,1.82,1.82,0,0,0-1.366.517,2.043,2.043,0,0,0-.5,1.488v2.559a.474.474,0,0,1-.153.357.506.506,0,0,1-.363.148.5.5,0,0,1-.5-.5v-4.994a.5.5,0,0,1,.5-.5.506.506,0,0,1,.363.148.475.475,0,0,1,.153.357v.381a2.165,2.165,0,0,1,.794-.695,2.414,2.414,0,0,1,1.077-.264A.5.5,0,0,1,1138.982,750.331Z" transform="translate(-1079.386 -747.575)" fill="#e6c13c"/>
      <path id="Path_64512" data-name="Path 64512" d="M1145.348,755.94a2.864,2.864,0,0,1-1.089-1.1,3.327,3.327,0,0,1,0-3.162,2.867,2.867,0,0,1,1.089-1.1,3.1,3.1,0,0,1,3.026,0,2.872,2.872,0,0,1,1.089,1.1,3.326,3.326,0,0,1,0,3.162,2.868,2.868,0,0,1-1.089,1.1,3.1,3.1,0,0,1-3.026,0Zm2.5-.818a2.006,2.006,0,0,0,.707-.769,2.275,2.275,0,0,0,.264-1.1,2.309,2.309,0,0,0-.258-1.1,1.957,1.957,0,0,0-.707-.763,1.91,1.91,0,0,0-1.98,0,1.954,1.954,0,0,0-.707.763,2.309,2.309,0,0,0-.258,1.1,2.279,2.279,0,0,0,.264,1.1,2.007,2.007,0,0,0,.708.769,1.888,1.888,0,0,0,1.968,0Z" transform="translate(-1083.334 -747.575)" fill="#e6c13c"/>
      <path id="Path_64513" data-name="Path 64513" d="M1159.457,755.94a2.866,2.866,0,0,1-1.089-1.1,3.324,3.324,0,0,1,0-3.162,2.87,2.87,0,0,1,1.089-1.1,3.105,3.105,0,0,1,2.583-.2,2.858,2.858,0,0,1,.911.56.457.457,0,0,1,.185.369.483.483,0,0,1-.48.48.487.487,0,0,1-.32-.123,1.931,1.931,0,0,0-1.366-.542,1.854,1.854,0,0,0-.99.277,1.952,1.952,0,0,0-.707.763,2.309,2.309,0,0,0-.259,1.1,2.274,2.274,0,0,0,.265,1.1,2.005,2.005,0,0,0,.708.769,1.82,1.82,0,0,0,.984.277,1.909,1.909,0,0,0,1.366-.554.489.489,0,0,1,.32-.111.483.483,0,0,1,.48.48.456.456,0,0,1-.185.369,2.85,2.85,0,0,1-.911.56,3.105,3.105,0,0,1-2.583-.2Z" transform="translate(-1090.185 -747.575)" fill="#e6c13c"/>
      <path id="Path_64514" data-name="Path 64514" d="M1171.835,755.922a2.808,2.808,0,0,1-1.014-1.1,3.261,3.261,0,0,1-.369-1.556,3.313,3.313,0,0,1,.375-1.581,2.848,2.848,0,0,1,1.014-1.108,2.689,2.689,0,0,1,2.86.025,2.808,2.808,0,0,1,1,1.144,3.468,3.468,0,0,1,.339,1.593.442.442,0,0,1-.443.443h-4.06a2.024,2.024,0,0,0,.621,1.156,1.682,1.682,0,0,0,1.175.443,2.829,2.829,0,0,0,.861-.129,4.247,4.247,0,0,0,.849-.388.576.576,0,0,1,.2-.049.445.445,0,0,1,.332.141.474.474,0,0,1,.135.339.464.464,0,0,1-.074.253.494.494,0,0,1-.2.178,6.459,6.459,0,0,1-1.064.436,3.722,3.722,0,0,1-1.077.154A2.711,2.711,0,0,1,1171.835,755.922Zm3.131-3.02a1.957,1.957,0,0,0-.56-1.273,1.605,1.605,0,0,0-2.325,0,1.952,1.952,0,0,0-.56,1.273Z" transform="translate(-1096.247 -747.575)" fill="#e6c13c"/>
      <path id="Path_64515" data-name="Path 64515" d="M1183.778,755.879a.453.453,0,0,1-.246-.406.419.419,0,0,1,.135-.314.449.449,0,0,1,.32-.129.418.418,0,0,1,.185.037,3.384,3.384,0,0,0,1.488.357,1.579,1.579,0,0,0,.88-.227.677.677,0,0,0,.351-.584.533.533,0,0,0-.32-.5,5.386,5.386,0,0,0-1-.351,8.964,8.964,0,0,1-1.046-.339,1.774,1.774,0,0,1-.695-.51,1.348,1.348,0,0,1-.289-.9,1.677,1.677,0,0,1,.578-1.328,2.217,2.217,0,0,1,1.513-.5,3.737,3.737,0,0,1,.972.135,4.126,4.126,0,0,1,.911.357.479.479,0,0,1,.178.172.44.44,0,0,1,.068.234.418.418,0,0,1-.135.313.447.447,0,0,1-.32.13.388.388,0,0,1-.2-.049,3.82,3.82,0,0,0-.732-.289,2.574,2.574,0,0,0-.683-.1,1.289,1.289,0,0,0-.824.252.786.786,0,0,0-.32.646.556.556,0,0,0,.179.424,1.251,1.251,0,0,0,.437.258q.258.092.75.227a8.789,8.789,0,0,1,1.015.32,1.761,1.761,0,0,1,.683.486,1.278,1.278,0,0,1,.283.867,1.523,1.523,0,0,1-.646,1.3,2.578,2.578,0,0,1-1.568.473A4.106,4.106,0,0,1,1183.778,755.879Z" transform="translate(-1102.599 -747.575)" fill="#e6c13c"/>
      <path id="Path_64516" data-name="Path 64516" d="M1194.4,755.879a.453.453,0,0,1-.246-.406.419.419,0,0,1,.135-.314.45.45,0,0,1,.32-.129.419.419,0,0,1,.185.037,3.384,3.384,0,0,0,1.488.357,1.578,1.578,0,0,0,.88-.227.677.677,0,0,0,.351-.584.533.533,0,0,0-.32-.5,5.4,5.4,0,0,0-1-.351,8.958,8.958,0,0,1-1.046-.339,1.774,1.774,0,0,1-.7-.51,1.349,1.349,0,0,1-.289-.9,1.677,1.677,0,0,1,.578-1.328,2.218,2.218,0,0,1,1.513-.5,3.738,3.738,0,0,1,.972.135,4.111,4.111,0,0,1,.91.357.477.477,0,0,1,.179.172.442.442,0,0,1,.068.234.418.418,0,0,1-.135.313.448.448,0,0,1-.32.13.389.389,0,0,1-.2-.049,3.815,3.815,0,0,0-.732-.289,2.575,2.575,0,0,0-.683-.1,1.29,1.29,0,0,0-.824.252.786.786,0,0,0-.32.646.555.555,0,0,0,.178.424,1.251,1.251,0,0,0,.437.258q.259.092.75.227a8.771,8.771,0,0,1,1.014.32,1.759,1.759,0,0,1,.683.486,1.278,1.278,0,0,1,.283.867,1.523,1.523,0,0,1-.646,1.3,2.579,2.579,0,0,1-1.569.473A4.105,4.105,0,0,1,1194.4,755.879Z" transform="translate(-1107.755 -747.575)" fill="#e6c13c"/>
      <path id="Path_64517" data-name="Path 64517" d="M1213.382,760.909a.6.6,0,0,1-.442-.184.653.653,0,0,1,0-.911.624.624,0,0,1,.885,0,.653.653,0,0,1,0,.911A.606.606,0,0,1,1213.382,760.909Z" transform="translate(-1116.789 -752.162)" fill="#e6c13c"/>
      <path id="Path_64518" data-name="Path 64518" d="M1230.459,750.577a2.811,2.811,0,0,1,1.015,1.1,3.519,3.519,0,0,1,0,3.162,2.808,2.808,0,0,1-1.015,1.1,2.648,2.648,0,0,1-1.415.394,2.611,2.611,0,0,1-1.175-.271,2.823,2.823,0,0,1-.941-.75v2.841a.508.508,0,0,1-.148.363.477.477,0,0,1-.356.154.525.525,0,0,1-.517-.517v-7.393a.476.476,0,0,1,.154-.357.5.5,0,0,1,.363-.148.5.5,0,0,1,.5.5v.431a2.742,2.742,0,0,1,.947-.744,2.677,2.677,0,0,1,1.169-.264A2.647,2.647,0,0,1,1230.459,750.577Zm-.628,4.546a2.006,2.006,0,0,0,.707-.769,2.275,2.275,0,0,0,.264-1.1,2.309,2.309,0,0,0-.258-1.1,1.959,1.959,0,0,0-.707-.763,1.853,1.853,0,0,0-.99-.277,1.83,1.83,0,0,0-.978.277,2,2,0,0,0-.714.763,2.411,2.411,0,0,0,0,2.2,1.986,1.986,0,0,0,.714.769,1.877,1.877,0,0,0,1.962,0Z" transform="translate(-1123.175 -747.575)" fill="#e6c13c"/>
      <path id="Path_64519" data-name="Path 64519" d="M1240.505,753.645a.5.5,0,0,1-.154-.363V745.63a.526.526,0,0,1,.517-.517.478.478,0,0,1,.357.154.507.507,0,0,1,.147.363v7.651a.506.506,0,0,1-.147.363.477.477,0,0,1-.357.153A.5.5,0,0,1,1240.505,753.645Z" transform="translate(-1130.189 -745.113)" fill="#e6c13c"/>
      <path id="Path_64520" data-name="Path 64520" d="M1250.88,750.4a.486.486,0,0,1,.148.357v4.982a.507.507,0,0,1-.148.363.476.476,0,0,1-.356.153.524.524,0,0,1-.517-.516v-.43a2.822,2.822,0,0,1-.941.75,2.611,2.611,0,0,1-1.174.271,2.649,2.649,0,0,1-1.415-.394,2.807,2.807,0,0,1-1.014-1.1,3.515,3.515,0,0,1,0-3.162,2.811,2.811,0,0,1,1.014-1.1,2.741,2.741,0,0,1,2.59-.129,2.754,2.754,0,0,1,.941.744v-.431a.475.475,0,0,1,.154-.357.506.506,0,0,1,.363-.148A.484.484,0,0,1,1250.88,750.4Zm-1.809,4.718a2,2,0,0,0,.708-.769,2.281,2.281,0,0,0,.264-1.1,2.314,2.314,0,0,0-.258-1.1,1.962,1.962,0,0,0-.707-.763,1.911,1.911,0,0,0-1.981,0,1.957,1.957,0,0,0-.707.763,2.316,2.316,0,0,0-.258,1.1,2.274,2.274,0,0,0,.264,1.1,2,2,0,0,0,.708.769,1.887,1.887,0,0,0,1.968,0Z" transform="translate(-1132.488 -747.575)" fill="#e6c13c"/>
      <path id="Path_64521" data-name="Path 64521" d="M1260.924,755.94a2.867,2.867,0,0,1-1.089-1.1,3.327,3.327,0,0,1,0-3.162,2.87,2.87,0,0,1,1.089-1.1,3.105,3.105,0,0,1,2.583-.2,2.853,2.853,0,0,1,.91.56.457.457,0,0,1,.185.369.483.483,0,0,1-.48.48.489.489,0,0,1-.32-.123,1.93,1.93,0,0,0-1.365-.542,1.854,1.854,0,0,0-.99.277,1.959,1.959,0,0,0-.707.763,2.309,2.309,0,0,0-.259,1.1,2.282,2.282,0,0,0,.264,1.1,2.01,2.01,0,0,0,.708.769,1.821,1.821,0,0,0,.984.277,1.909,1.909,0,0,0,1.365-.554.49.49,0,0,1,.32-.111.483.483,0,0,1,.48.48.456.456,0,0,1-.185.369,2.845,2.845,0,0,1-.91.56,3.105,3.105,0,0,1-2.583-.2Z" transform="translate(-1139.456 -747.575)" fill="#e6c13c"/>
      <path id="Path_64522" data-name="Path 64522" d="M1273.3,755.922a2.8,2.8,0,0,1-1.014-1.1,3.26,3.26,0,0,1-.369-1.556,3.308,3.308,0,0,1,.375-1.581,2.846,2.846,0,0,1,1.015-1.108,2.688,2.688,0,0,1,2.86.025,2.81,2.81,0,0,1,1,1.144,3.467,3.467,0,0,1,.338,1.593.442.442,0,0,1-.443.443H1273a2.026,2.026,0,0,0,.621,1.156,1.683,1.683,0,0,0,1.175.443,2.83,2.83,0,0,0,.861-.129,4.251,4.251,0,0,0,.849-.388.577.577,0,0,1,.2-.049.444.444,0,0,1,.332.141.474.474,0,0,1,.135.339.464.464,0,0,1-.073.253.492.492,0,0,1-.2.178,6.439,6.439,0,0,1-1.064.436,3.721,3.721,0,0,1-1.077.154A2.711,2.711,0,0,1,1273.3,755.922Zm3.131-3.02a1.954,1.954,0,0,0-.56-1.273,1.605,1.605,0,0,0-2.325,0,1.953,1.953,0,0,0-.559,1.273Z" transform="translate(-1145.518 -747.575)" fill="#e6c13c"/>
      <path id="Path_64523" data-name="Path 64523" d="M1293.935,750.478a2.146,2.146,0,0,1,.849.861,2.726,2.726,0,0,1,.313,1.341v3.075a.474.474,0,0,1-.153.357.507.507,0,0,1-.363.148.5.5,0,0,1-.5-.5v-2.977a1.635,1.635,0,0,0-2.8-1.169,1.693,1.693,0,0,0-.48,1.23v2.916a.5.5,0,0,1-1.009,0v-2.977a1.635,1.635,0,0,0-2.8-1.169,1.691,1.691,0,0,0-.48,1.23v2.916a.474.474,0,0,1-.154.357.5.5,0,0,1-.363.148.505.505,0,0,1-.5-.5v-4.994a.5.5,0,0,1,.5-.5.5.5,0,0,1,.363.148.476.476,0,0,1,.154.357v.381a2.194,2.194,0,0,1,.824-.707,2.468,2.468,0,0,1,1.12-.252,2.4,2.4,0,0,1,1.23.314,2.1,2.1,0,0,1,.836.9,2.355,2.355,0,0,1,.9-.9,2.636,2.636,0,0,1,1.31-.32A2.464,2.464,0,0,1,1293.935,750.478Z" transform="translate(-1152.102 -747.575)" fill="#e6c13c"/>
      <path id="Path_64524" data-name="Path 64524" d="M1308.24,755.922a2.8,2.8,0,0,1-1.015-1.1,3.265,3.265,0,0,1-.369-1.556,3.32,3.32,0,0,1,.375-1.581,2.853,2.853,0,0,1,1.015-1.108,2.689,2.689,0,0,1,2.86.025,2.813,2.813,0,0,1,1,1.144,3.468,3.468,0,0,1,.338,1.593.442.442,0,0,1-.443.443h-4.06a2.025,2.025,0,0,0,.621,1.156,1.683,1.683,0,0,0,1.175.443,2.827,2.827,0,0,0,.861-.129,4.254,4.254,0,0,0,.849-.388.576.576,0,0,1,.2-.049.445.445,0,0,1,.332.141.474.474,0,0,1,.135.339.463.463,0,0,1-.074.253.49.49,0,0,1-.2.178,6.439,6.439,0,0,1-1.064.436,3.724,3.724,0,0,1-1.077.154A2.709,2.709,0,0,1,1308.24,755.922Zm3.131-3.02a1.958,1.958,0,0,0-.56-1.273,1.605,1.605,0,0,0-2.325,0,1.951,1.951,0,0,0-.56,1.273Z" transform="translate(-1162.483 -747.575)" fill="#e6c13c"/>
      <path id="Path_64525" data-name="Path 64525" d="M1324.58,750.478a2.111,2.111,0,0,1,.843.861,2.772,2.772,0,0,1,.307,1.341v3.075a.5.5,0,1,1-1.009,0v-2.977a1.572,1.572,0,0,0-1.624-1.661,1.583,1.583,0,0,0-1.181.492,1.69,1.69,0,0,0-.48,1.23v2.916a.473.473,0,0,1-.154.357.5.5,0,0,1-.363.148.5.5,0,0,1-.5-.5v-4.994a.5.5,0,0,1,.5-.5.5.5,0,0,1,.363.148.475.475,0,0,1,.154.357v.381a2.187,2.187,0,0,1,.824-.707,2.6,2.6,0,0,1,2.319.043Z" transform="translate(-1169.068 -747.575)" fill="#e6c13c"/>
      <path id="Path_64526" data-name="Path 64526" d="M1337.481,754.311a.5.5,0,0,1-.24.167,3.358,3.358,0,0,1-1.009.172,1.727,1.727,0,0,1-1.378-.566,1.787,1.787,0,0,1-.461-.775,3.858,3.858,0,0,1-.129-1.07v-2.6h-.873a.468.468,0,1,1,0-.935h.873v-1.451a.517.517,0,0,1,1.033,0v1.451h1.575a.468.468,0,1,1,0,.935H1335.3v2.743a2.54,2.54,0,0,0,.074.67.97.97,0,0,0,.246.437.9.9,0,0,0,.665.246,2.72,2.72,0,0,0,.726-.123.452.452,0,0,1,.123-.012.427.427,0,0,1,.314.129.442.442,0,0,1,.129.326A.4.4,0,0,1,1337.481,754.311Z" transform="translate(-1175.141 -745.903)" fill="#e6c13c"/>
    </g>
    <path id="Path_64527" data-name="Path 64527" d="M1284.859,621.7c-5.065-25.624-20.833-44.581-43.262-52.01a60.6,60.6,0,0,0-60.786,13.7l-2.829-3.152a64.341,64.341,0,0,1,64.9-14.629A66.22,66.22,0,0,1,1271.917,585c8.538,9.794,14.437,22.664,17.2,36.653Z" transform="translate(-83.703)" fill="url(#linear-gradient)"/>
    <path id="Path_64528" data-name="Path 64528" d="M1126.318,604.515" transform="translate(-58.616 -20.491)" fill="none"/>
    <path id="Path_64529" data-name="Path 64529" d="M1143.286,628.2a14.759,14.759,0,0,0-2.639.992v8.089a4.175,4.175,0,0,1-4.185,4.5,4.022,4.022,0,0,1-2.987-1.248,4.242,4.242,0,0,1-1.185-3.252V629.2a14.759,14.759,0,0,0-2.639-.992,20.112,20.112,0,0,0-4.95-.506v10.52a9.962,9.962,0,0,0,1.853,6.252,11.029,11.029,0,0,0,4.367,3.322,13.835,13.835,0,0,0,11.105.006,10.937,10.937,0,0,0,4.355-3.328,9.579,9.579,0,0,0,1.853-6.252V627.7A20.109,20.109,0,0,0,1143.286,628.2Z" transform="translate(-57.831 -31.748)" fill="#fff"/>
    <g id="Group_39318" data-name="Group 39318" transform="translate(1065.256 587.141)">
      <path id="Path_64530" data-name="Path 64530" d="M1134.945,619.977a24.988,24.988,0,0,0-6.51-3.255,21.765,21.765,0,0,0-6.871-.362l3.978-5.786a17.143,17.143,0,0,1,5.786,1.085,7.687,7.687,0,0,1,3.617,3.255Z" transform="translate(-1121.564 -610.574)" fill="#e6c13c"/>
      <path id="Path_64531" data-name="Path 64531" d="M1147.576,619.977a24.98,24.98,0,0,1,6.509-3.255,21.768,21.768,0,0,1,6.872-.362l-3.979-5.786a17.143,17.143,0,0,0-5.786,1.085,7.686,7.686,0,0,0-3.616,3.255Z" transform="translate(-1134.195 -610.574)" fill="#e6c13c"/>
    </g>
  </g>
</svg>
